<?xml version="1.0" standalone="no"?><!DOCTYPE svg PUBLIC "-//W3C//DTD SVG 1.1//EN" "http://www.w3.org/Graphics/SVG/1.1/DTD/svg11.dtd"><svg t="1779081860719" class="icon" viewBox="0 0 1024 1024" version="1.1" xmlns="http://www.w3.org/2000/svg" p-id="1663" xmlns:xlink="http://www.w3.org/1999/xlink" width="356" height="356"><path d="M397.730909 341.922909c10.798545-1.303273 21.783273 0.279273 31.883636 4.421818h0.046546l469.317818 192h0.093091a64.046545 64.046545 0 0 1-9.541818 121.437091h0.046545l-185.530182 44.450909-44.357818 185.297455v0.046545a64.093091 64.093091 0 0 1-95.883636 39.889455 64.093091 64.093091 0 0 1-25.646546-30.347637L346.158545 429.847273a63.906909 63.906909 0 0 1-3.723636-36.677818l1.117091-4.654546c2.932364-10.705455 8.564364-20.48 16.430545-28.346182l3.537455-3.211636c8.378182-7.214545 18.525091-12.194909 29.463273-14.336l4.747636-0.698182z m194.327273 463.592727l28.997818-121.157818v-0.093091a85.364364 85.364364 0 0 1 63.115636-63.022545l121.157819-29.044364L444.369455 444.509091l147.688727 361.006545z" fill="#707070" p-id="1664"></path><path d="M225.000727 482.722909a42.682182 42.682182 0 0 1 61.905455 58.833455l-81.082182 85.317818a42.728727 42.728727 0 0 1-61.905455-58.786909l81.082182-85.364364zM52.829091 296.029091a42.682182 42.682182 0 0 1 52.503273-29.789091l123.717818 34.164364a42.682182 42.682182 0 0 1-22.667637 82.292363l-123.810909-34.164363a42.682182 42.682182 0 0 1-29.789091-52.503273zM567.901091 144.104727a42.682182 42.682182 0 0 1 58.786909 61.905455L541.323636 287.045818a42.728727 42.728727 0 0 1-58.833454-61.905454l85.364363-81.035637zM295.517091 52.829091a42.682182 42.682182 0 0 1 52.503273 29.789091l34.117818 123.764363a42.682182 42.682182 0 0 1-82.292364 22.667637L265.774545 105.332364a42.682182 42.682182 0 0 1 29.789091-52.503273z" fill="#707070" p-id="1665"></path></svg>